<svg xmlns="http://www.w3.org/2000/svg" xmlns:xlink="http://www.w3.org/1999/xlink" aria-hidden="true" role="img" class="iconify iconify--logos" width="31.88" height="32" preserveAspectRatio="xMidYMid meet" viewBox="0 0 256 257"><defs><linearGradient id="IconifyId1813088fe13479a9f4" x1="-.828" x2="1" y1="-.828" y2="1"><stop offset="0" stop-color="#41D1FF"/><stop offset="1" stop-color="#BD34FE"/></linearGradient><linearGradient id="IconifyId1813088fe13479a9f5" x1="-.828" x2="1" y1="-.828" y2="1"><stop offset="0" stop-color="#FFEA83"/><stop offset=".083" stop-color="#FFDD35"/><stop offset="1" stop-color="#FFA800"/></linearGradient></defs><path fill="url(#IconifyId1813088fe13479a9f4)" d="M255.153 63.961c-3.97-15.06-17.58-26.22-33.84-26.22h-51.53c-11.39 0-21.82 5.92-27.51 15.39L63.96 195.838c-3.97 6.5-11.38 10.45-19.33 10.45h-44.1c-11.39 0-21.82-5.92-27.51-15.39C-10.95 177.168.31 157.118 15.37 146.128L158.08 30.738c6.5-3.97 10.45-11.38 10.45-19.33v-10.87c0-11.39-5.92-21.82-15.39-27.51C139.37-10.95 119.32.31 108.33 15.37L.847 183.088c-6.5 11.39-5.92 25.44 1.76 36.25c7.68 10.81 20.29 17.64 33.84 17.64h51.53c11.39 0 21.82-5.92 27.51-15.39l78.273-142.71c3.97-6.5 11.38-10.45 19.33-10.45h44.1c11.39 0 21.82 5.92 27.51 15.39c13.92 13.73 6.32 37.2-11.43 45.42L115.33 256.5c-6.5 3.97-10.45 11.38-10.45 19.33v10.87c0 11.39 5.92 21.82 15.39 27.51c13.77 13.92 37.2 6.32 45.42-11.43l117.21-185.3c6.5-11.39 5.92-25.44-1.75-36.25c-7.69-10.81-20.3-17.64-33.85-17.64Z" transform="translate(0 .5)"/><path fill="url(#IconifyId1813088fe13479a9f5)" d="M182.233.538C167.173-10.45 147.123.81 136.133 15.87L.847 220.618c-6.5 11.39-5.92 25.44 1.76 36.25c7.68 10.81 20.29 17.64 33.84 17.64h103.06c11.39 0 21.82-5.92 27.51-15.39l133.28-204.748c6.5-11.39 5.92-25.44-1.76-36.25C290.85 7.158 278.24.328 264.7.328h-82.467Z" transform="translate(0 .5)"/></svg>
